<svg width="130" height="24" viewBox="0 0 130 24" fill="none" xmlns="http://www.w3.org/2000/svg">
<path d="M0 10.583V23.9999H2.4083V12.333L5.23183 11.083V23.9999H10.4637V19.8332L13.5363 23.9999H15.9446V3.83284L18.8512 2.74948V23.9999H24V2.24947L19.0173 0.0827637L13.5363 2.24947V14.5831L10.4637 10.7496L5.23183 8.41627L0 10.583Z" fill="#3743D8"/>
<path d="M0 8.74983L2.4083 7.74981L2.4083 3.75008L5.31488 2.50005L5.31488 6.58312L10.4637 8.9165L10.4637 2.16671L5.56401 0L0 2.25005V8.74983Z" fill="#3743D8"/>
<path d="M116.775 23.9536C116.096 23.9536 115.472 23.777 114.903 23.4239C114.353 23.0512 113.912 22.5707 113.582 21.9822C113.252 21.3937 113.087 20.7366 113.087 20.0108V13.6553H126.022V10.9484C126.022 10.7915 125.967 10.664 125.857 10.5659C125.765 10.4482 125.646 10.3893 125.499 10.3893H113.087V6.88794H125.609C126.307 6.88794 126.93 7.07429 127.481 7.44698C128.031 7.80007 128.472 8.27084 128.802 8.85931C129.132 9.44778 129.297 10.1049 129.297 10.8307V23.9536H116.775ZM116.885 20.4522H126.022V16.8625H116.362V19.8931C116.362 20.05 116.408 20.1874 116.499 20.305C116.61 20.4031 116.738 20.4522 116.885 20.4522Z" fill="#323232"/>
<path d="M97.6655 23.9536C96.9867 23.9536 96.3628 23.777 95.794 23.4239C95.2436 23.0512 94.8032 22.5707 94.4729 21.9822C94.1427 21.3937 93.9775 20.7366 93.9775 20.0108V13.6553H106.913V10.9484C106.913 10.7915 106.858 10.664 106.748 10.5659C106.656 10.4482 106.537 10.3893 106.39 10.3893H93.9775V6.88794H106.5C107.197 6.88794 107.821 7.07429 108.372 7.44698C108.922 7.80007 109.363 8.27084 109.693 8.85931C110.023 9.44778 110.188 10.1049 110.188 10.8307V23.9536H97.6655ZM97.7756 20.4522H106.913V16.8625H97.2527V19.8931C97.2527 20.05 97.2986 20.1874 97.3903 20.305C97.5004 20.4031 97.6288 20.4522 97.7756 20.4522Z" fill="#323232"/>
<path d="M75.5933 23.9534V1.29736H78.8684V6.88782H88.1435C88.804 6.88782 89.4095 7.07417 89.9599 7.44687C90.5287 7.79995 90.9783 8.27073 91.3085 8.8592C91.6388 9.44767 91.8039 10.1048 91.8039 10.8306V23.9534H88.5288V10.9483C88.5288 10.7913 88.4737 10.6638 88.3636 10.5658C88.2719 10.4481 88.1618 10.3892 88.0334 10.3892H79.3913C79.2629 10.3892 79.1436 10.4481 79.0336 10.5658C78.9235 10.6638 78.8684 10.7913 78.8684 10.9483V23.9534H75.5933Z" fill="#323232"/>
<path d="M60.6802 23.9536C60.0013 23.9536 59.3866 23.777 58.8362 23.4239C58.2857 23.0512 57.8362 22.5707 57.4876 21.9822C57.1573 21.3937 56.9922 20.7366 56.9922 20.0108V10.8307C56.9922 10.1049 57.1573 9.44778 57.4876 8.85931C57.8362 8.27084 58.2857 7.80007 58.8362 7.44698C59.3866 7.07429 60.0013 6.88794 60.6802 6.88794H73.1753V10.3893H60.7903C60.6435 10.3893 60.515 10.4482 60.405 10.5659C60.3132 10.664 60.2673 10.7915 60.2673 10.9484V19.8931C60.2673 20.05 60.3132 20.1874 60.405 20.305C60.515 20.4031 60.6435 20.4522 60.7903 20.4522H73.2029V23.9536H60.6802Z" fill="#323232"/>
<path d="M38.5278 23.9536V6.88794H51.078C51.7386 6.88794 52.3441 7.07429 52.8945 7.44698C53.4633 7.80007 53.9128 8.27084 54.2431 8.85931C54.5734 9.44778 54.7385 10.1049 54.7385 10.8307V23.9536H51.4633V10.9484C51.4633 10.7915 51.4083 10.664 51.2982 10.5659C51.2065 10.4482 51.0964 10.3893 50.9679 10.3893H42.3259C42.1975 10.3893 42.0782 10.4482 41.9681 10.5659C41.858 10.664 41.803 10.7915 41.803 10.9484V23.9536H38.5278Z" fill="#323232"/>
<path d="M32 24V8.06706L35.3645 6.93426V24H32ZM32 6.0074V2.47656L35.3645 1.34375V4.8746L32 6.0074Z" fill="#323232"/>
</svg>
